<mxfile host="app.diagrams.net" modified="2023-02-27T15:14:20.057Z" agent="5.0 (Windows NT 10.0; Win64; x64) AppleWebKit/537.36 (KHTML, like Gecko) Chrome/110.0.0.0 Safari/537.36" etag="fQjbYjLITSfFOIl-UnbS" version="20.8.23" type="github">
  <diagram name="Page-1" id="rm436fjJvkIHgSCDLYgx">
    <mxGraphModel dx="1434" dy="796" grid="1" gridSize="10" guides="1" tooltips="1" connect="1" arrows="1" fold="1" page="1" pageScale="1" pageWidth="850" pageHeight="1100" math="0" shadow="0">
      <root>
        <mxCell id="0" />
        <mxCell id="1" parent="0" />
        <mxCell id="lS1mMJbGLy1I7BsfVSSj-1" value="start&amp;nbsp;" style="ellipse;whiteSpace=wrap;html=1;" vertex="1" parent="1">
          <mxGeometry x="390" y="70" width="120" height="80" as="geometry" />
        </mxCell>
        <mxCell id="lS1mMJbGLy1I7BsfVSSj-3" value="preset city buttons&amp;nbsp;" style="shape=parallelogram;perimeter=parallelogramPerimeter;whiteSpace=wrap;html=1;fixedSize=1;" vertex="1" parent="1">
          <mxGeometry x="340" y="210" width="120" height="60" as="geometry" />
        </mxCell>
        <mxCell id="lS1mMJbGLy1I7BsfVSSj-4" value="" style="rhombus;whiteSpace=wrap;html=1;" vertex="1" parent="1">
          <mxGeometry x="50" y="230" width="80" height="80" as="geometry" />
        </mxCell>
        <mxCell id="lS1mMJbGLy1I7BsfVSSj-5" value="" style="endArrow=classic;html=1;rounded=0;entryX=0.5;entryY=0;entryDx=0;entryDy=0;" edge="1" parent="1" target="lS1mMJbGLy1I7BsfVSSj-3">
          <mxGeometry width="50" height="50" relative="1" as="geometry">
            <mxPoint x="449.5" y="150" as="sourcePoint" />
            <mxPoint x="449.5" y="210" as="targetPoint" />
          </mxGeometry>
        </mxCell>
        <mxCell id="lS1mMJbGLy1I7BsfVSSj-7" value="city name search&amp;nbsp;" style="shape=parallelogram;perimeter=parallelogramPerimeter;whiteSpace=wrap;html=1;fixedSize=1;" vertex="1" parent="1">
          <mxGeometry x="480" y="210" width="120" height="60" as="geometry" />
        </mxCell>
        <mxCell id="lS1mMJbGLy1I7BsfVSSj-8" value="" style="endArrow=classic;html=1;rounded=0;entryX=0.5;entryY=0;entryDx=0;entryDy=0;entryPerimeter=0;" edge="1" parent="1" target="lS1mMJbGLy1I7BsfVSSj-7">
          <mxGeometry width="50" height="50" relative="1" as="geometry">
            <mxPoint x="460" y="150" as="sourcePoint" />
            <mxPoint x="460" y="200" as="targetPoint" />
          </mxGeometry>
        </mxCell>
        <mxCell id="lS1mMJbGLy1I7BsfVSSj-9" value="update weather function with a unit check that toggles a convert to celcius if celcius or reupdates if false&lt;br&gt;uses value of form input or value of button text (city name)&amp;nbsp;&amp;nbsp;" style="rounded=0;whiteSpace=wrap;html=1;" vertex="1" parent="1">
          <mxGeometry x="180" y="490" width="120" height="60" as="geometry" />
        </mxCell>
        <mxCell id="lS1mMJbGLy1I7BsfVSSj-11" value="" style="endArrow=classic;html=1;rounded=0;" edge="1" parent="1">
          <mxGeometry width="50" height="50" relative="1" as="geometry">
            <mxPoint x="399.5" y="270" as="sourcePoint" />
            <mxPoint x="399.5" y="320" as="targetPoint" />
          </mxGeometry>
        </mxCell>
        <mxCell id="lS1mMJbGLy1I7BsfVSSj-12" value="display New York weather on page load&amp;nbsp;" style="rounded=0;whiteSpace=wrap;html=1;" vertex="1" parent="1">
          <mxGeometry x="360" y="340" width="120" height="60" as="geometry" />
        </mxCell>
        <mxCell id="lS1mMJbGLy1I7BsfVSSj-13" value="" style="rounded=0;whiteSpace=wrap;html=1;" vertex="1" parent="1">
          <mxGeometry x="360" y="330" width="120" height="60" as="geometry" />
        </mxCell>
        <mxCell id="lS1mMJbGLy1I7BsfVSSj-14" value="function use same boolean parameter that determines if weather is updated or not, boolean is set on unit button click which uses another function to call the update function with the boolean&amp;nbsp;" style="rounded=0;whiteSpace=wrap;html=1;" vertex="1" parent="1">
          <mxGeometry x="200" y="340" width="120" height="60" as="geometry" />
        </mxCell>
        <mxCell id="lS1mMJbGLy1I7BsfVSSj-15" value="if celcius button is clicked, set function parameter to true &lt;br&gt;&lt;br&gt;update data that is already displayed to use celcius unit&amp;nbsp;&amp;nbsp;" style="rounded=0;whiteSpace=wrap;html=1;" vertex="1" parent="1">
          <mxGeometry x="365" y="490" width="120" height="60" as="geometry" />
        </mxCell>
        <mxCell id="lS1mMJbGLy1I7BsfVSSj-16" value="if farenheit button is clicked set function parameter to false so that data is updated again without converting to celcius (default is farenheit)" style="rounded=0;whiteSpace=wrap;html=1;" vertex="1" parent="1">
          <mxGeometry x="520" y="490" width="120" height="60" as="geometry" />
        </mxCell>
        <mxCell id="lS1mMJbGLy1I7BsfVSSj-17" value="set background function that changes based on the weather description. if weather description includes rain or thunderstorm, change body class to rain, makes page color specific color.&amp;nbsp;&amp;nbsp;" style="rounded=0;whiteSpace=wrap;html=1;" vertex="1" parent="1">
          <mxGeometry x="620" y="360" width="120" height="60" as="geometry" />
        </mxCell>
      </root>
    </mxGraphModel>
  </diagram>
</mxfile>
